# xmcd
#
# Track frame offsets:
#	150
#	21645
#	40688
#	60415
#	77892
#	95064
#	115325
#	136770
#	153124
#	170295
#	191749
#
# Disc length: 2826 seconds
#
# Revision: 0
# Processed by: cddbd v1.5.2PL0 Copyright (c) Steve Scherf et al.
# Submitted via: EZCDAudioConverter 8.0.2.1
#
DISCID=8a0b080b
DTITLE=Various Artist - st. Trịnh Công Sơn. Ở Trọ, Xin CHo Tôi, Nhìn Những Mùa Thu Đi
DYEAR=2010
DGENRE=World Pop
TTITLE0=Tuyết Thanh - Xin cho tôi
TTITLE1=Nguyễn Tuân - Một cõi đi về
TTITLE2=Ẩn Lan - Nắng thủy tinh
TTITLE3=Hoàng Nhật Minh - Mưa hồng
TTITLE4=Quỳnh Anh, Kim Ánh - Ở Trọ
TTITLE5=Ẩn Lan - Nhìn những mùa thu đi
TTITLE6=Tuyết Thanh - Phôi pha
TTITLE7=Tuyết Thanh. Công Trứ - Xin mặt trời ngủ yên
TTITLE8=Soundtrack - Ở Trọ
TTITLE9=Soundtrack - Xin cho tôi
TTITLE10=Soundtrack - Nhìn những mùa thu đi
EXTD=
EXTT0=
EXTT1=
EXTT2=
EXTT3=
EXTT4=
EXTT5=
EXTT6=
EXTT7=
EXTT8=
EXTT9=
EXTT10=
PLAYORDER=
